<?xml version="1.0" standalone="no"?><!DOCTYPE svg PUBLIC "-//W3C//DTD SVG 1.1//EN" "http://www.w3.org/Graphics/SVG/1.1/DTD/svg11.dtd"><svg t="1566119003383" class="icon" viewBox="0 0 1024 1024" version="1.1" xmlns="http://www.w3.org/2000/svg" p-id="494" width="128" height="128" xmlns:xlink="http://www.w3.org/1999/xlink"><defs><style type="text/css"></style></defs><path d="M413.414169 642.675178" p-id="495" fill="#515151"></path><path d="M409.886833 758.360967" p-id="496" fill="#515151"></path><path d="M374.661563 624.461351" p-id="497" fill="#515151"></path><path d="M509.43099 364.371708" p-id="498" fill="#515151"></path><path d="M666.627195 747.041154" p-id="499" fill="#515151"></path><path d="M64.822866 435.314457" p-id="500" fill="#515151"></path><path d="M509.43099 364.371708" p-id="501" fill="#515151"></path><path d="M670.722466 747.041154" p-id="502" fill="#515151"></path><path d="M511.594259 384.638287" p-id="503" fill="#515151"></path><path d="M608.967984 642.675178" p-id="504" fill="#515151"></path><path d="M612.49225 758.360967" p-id="505" fill="#515151"></path><path d="M647.720589 624.461351" p-id="506" fill="#515151"></path><path d="M511.594259 364.371708" p-id="507" fill="#515151"></path><path d="M674.693918 747.041154" p-id="508" fill="#515151"></path><path d="M512.951163 364.371708" p-id="509" fill="#515151"></path><path d="M355.753935 747.041154" p-id="510" fill="#515151"></path><path d="M957.556217 435.314457" p-id="511" fill="#515151"></path><path d="M511.594259 384.638287" p-id="512" fill="#515151"></path><path d="M671.681304 725.512838" p-id="513" fill="#515151"></path><path d="M511.594259 364.371708" p-id="514" fill="#515151"></path><path d="M347.688235 747.041154" p-id="515" fill="#515151"></path><path d="M512.026094 384.638287" p-id="516" fill="#515151"></path><path d="M603.239516 642.675178" p-id="517" fill="#515151"></path><path d="M606.765829 758.360967" p-id="518" fill="#515151"></path><path d="M641.992121 624.461351" p-id="519" fill="#515151"></path><path d="M683.935396 718.039633c-75.842339 13.603833-128.247896-7.924483-153.221684-72.01415-19.978007-51.262524 5.387707-109.022019 56.671721-129.001049 41.000809-15.97074 87.213317 4.322445 103.196337 45.335535 12.784164 32.807197-3.457752 69.781296-36.265972 82.553181-26.252921 10.237155-55.830563-2.759857-66.053392-29.002544 6.318916 15.253402 27.744901 22.335704 42.999326 16.015765 19.070334-7.889691 28.128641-29.754674 20.236903-48.825009-9.865695-23.839965-37.199227-35.165918-61.036122-25.289989-29.800723 12.33698-43.438325 46.279023-31.618115 76.292594 16.32992 41.451064 53.000098 62.024635 119.077026 53.236482 390.56937-74.877361 286.073434-358.985024-166.602436-358.985024-452.671777 0-564.330856 284.107663-173.761486 358.985024 66.076928 8.788154 102.747105-11.786441 119.066793-53.236482 11.819187-30.013571-1.818415-63.955614-31.607882-76.292594-23.839965-9.875928-51.170426 1.450025-61.037145 25.289989-7.90197 19.070334 1.167592 40.935318 20.236903 48.825009 15.254425 6.319939 36.680411-0.762363 42.989093-16.015765-10.213619 26.242687-39.801495 39.239699-66.043159 29.002544-32.809243-12.770861-49.061392-49.745984-36.265972-82.553181 15.98302-41.013089 62.182224-61.307298 103.195314-45.335535 51.284013 19.97903 76.639494 77.738525 56.660464 129.001049-24.963555 64.089667-77.368088 85.617983-153.210427 72.01415-430.16825-75.966159-325.424674-420.078451 179.777503-419.729503C1016.521167 297.961182 1114.102622 642.072451 683.935396 718.039633z" p-id="520" fill="#515151"></path><path d="M507.222695 364.371708" p-id="521" fill="#515151"></path><path d="M350.02649 747.041154" p-id="522" fill="#515151"></path><path d="M507.222695 364.371708" p-id="523" fill="#515151"></path><path d="M345.931219 747.041154" p-id="524" fill="#515151"></path><path d="M505.059426 384.638287" p-id="525" fill="#515151"></path><path d="M407.685701 642.675178" p-id="526" fill="#515151"></path><path d="M404.161435 758.360967" p-id="527" fill="#515151"></path><path d="M368.933095 624.461351" p-id="528" fill="#515151"></path><path d="M505.059426 364.371708" p-id="529" fill="#515151"></path><path d="M341.959767 747.041154" p-id="530" fill="#515151"></path><path d="M503.702522 364.371708" p-id="531" fill="#515151"></path><path d="M660.89975 747.041154" p-id="532" fill="#515151"></path><path d="M344.972381 725.512838" p-id="533" fill="#515151"></path><path d="M505.059426 364.371708" p-id="534" fill="#515151"></path><path d="M668.965449 747.041154" p-id="535" fill="#515151"></path></svg>